<?xml version="1.0" standalone="no"?>
<!DOCTYPE svg PUBLIC "-//W3C//DTD SVG 20010904//EN"
 "http://www.w3.org/TR/2001/REC-SVG-20010904/DTD/svg10.dtd">
<svg version="1.0" xmlns="http://www.w3.org/2000/svg"
 width="1024.000000pt" height="1024.000000pt" viewBox="0 0 1024.000000 1024.000000"
 preserveAspectRatio="xMidYMid meet">
<metadata>
Created by potrace 1.14, written by Peter Selinger 2001-2017
</metadata>
<g transform="translate(0.000000,1024.000000) scale(0.100000,-0.100000)"
fill="#000000" stroke="none">
<path d="M2450 5125 l0 -1585 1175 0 1175 0 0 285 0 285 -890 0 -890 0 0 365
0 365 760 0 760 0 0 285 0 285 -760 0 -760 0 0 365 0 365 888 2 887 3 3 283 2
282 -1175 0 -1175 0 0 -1585z"/>
<path d="M5310 5125 l0 -1585 285 0 285 0 0 605 0 605 422 -2 422 -3 13 -25
c7 -14 31 -65 54 -114 22 -48 131 -282 241 -520 110 -237 212 -457 226 -488
l27 -58 312 0 c172 0 313 2 313 5 0 4 -185 406 -278 605 -22 47 -55 119 -75
160 -173 372 -217 469 -217 473 0 3 28 15 62 26 188 64 336 217 397 411 43
134 53 261 49 564 -4 207 -9 302 -21 361 -59 286 -217 458 -492 536 l-80 23
-972 3 -973 4 0 -1586z m1836 1000 c54 -16 81 -40 109 -95 15 -29 19 -69 23
-235 7 -324 -11 -394 -111 -448 l-42 -22 -622 -3 -623 -3 0 410 0 411 608 0
c508 0 617 -2 658 -15z"/>
</g>
</svg>
